<svg xmlns="http://www.w3.org/2000/svg" width="900" height="600" viewBox="0 0 900 600">
  <rect width="900" height="600" rx="24" fill="#ddf3f0"/>
  <rect x="42" y="42" width="816" height="516" rx="22" fill="rgba(255,255,255,0.72)"/>
  <!-- 폴더 -->
  <g transform="translate(100,130)">
    <path d="M0 26 Q0 12 14 12 L96 12 L120 38 L266 38 Q280 38 280 52 L280 196 Q280 210 266 210 L14 210 Q0 210 0 196 Z" fill="#0d9488"/>
    <rect x="22" y="66" width="236" height="20" rx="10" fill="#b7e6df"/>
    <rect x="22" y="102" width="196" height="20" rx="10" fill="#b7e6df"/>
    <rect x="22" y="138" width="216" height="20" rx="10" fill="#b7e6df"/>
  </g>
  <!-- 데이터베이스 -->
  <g transform="translate(150,380)">
    <ellipse cx="90" cy="20" rx="90" ry="20" fill="#0d9488"/>
    <rect x="0" y="20" width="180" height="70" fill="#0d9488"/>
    <ellipse cx="90" cy="90" rx="90" ry="20" fill="#0d9488"/>
    <ellipse cx="90" cy="24" rx="70" ry="12" fill="#ddf3f0"/>
  </g>
  <text x="460" y="270" font-size="46" font-family="Arial, 'Malgun Gothic', sans-serif" font-weight="700" fill="#0f1115">에셋 및</text>
  <text x="460" y="326" font-size="46" font-family="Arial, 'Malgun Gothic', sans-serif" font-weight="700" fill="#0f1115">데이터 관리자</text>
  <text x="460" y="372" font-size="24" font-family="Arial, sans-serif" fill="#233039">In Development · Solo</text>
  <rect x="460" y="400" width="150" height="44" rx="22" fill="#0d9488"/>
  <text x="535" y="429" font-size="20" font-family="Arial, sans-serif" font-weight="700" fill="#ffffff" text-anchor="middle">WIP</text>
</svg>
