<svg xmlns="http://www.w3.org/2000/svg" width="900" height="600" viewBox="0 0 900 600">
  <rect width="900" height="600" rx="24" fill="#e6e9ff"/>
  <rect x="42" y="42" width="816" height="516" rx="22" fill="rgba(255,255,255,0.72)"/>
  <!-- 게임패드 -->
  <g transform="translate(96,150)">
    <rect x="0" y="30" width="300" height="150" rx="70" fill="#4f46e5"/>
    <rect x="52" y="82" width="56" height="18" rx="9" fill="#e6e9ff"/>
    <rect x="71" y="63" width="18" height="56" rx="9" fill="#e6e9ff"/>
    <circle cx="216" cy="80" r="13" fill="#e6e9ff"/>
    <circle cx="248" cy="106" r="13" fill="#e6e9ff"/>
    <circle cx="216" cy="132" r="13" fill="#c7cbff"/>
    <circle cx="184" cy="106" r="13" fill="#c7cbff"/>
  </g>
  <!-- 운영 패널 -->
  <g transform="translate(130,370)">
    <rect x="0" y="0" width="240" height="110" rx="14" fill="#ffffff" stroke="#c7cbff" stroke-width="3"/>
    <rect x="18" y="20" width="120" height="14" rx="7" fill="#4f46e5"/>
    <rect x="18" y="48" width="170" height="14" rx="7" fill="#c7cbff"/>
    <rect x="18" y="76" width="140" height="14" rx="7" fill="#c7cbff"/>
  </g>
  <text x="470" y="270" font-size="46" font-family="Arial, 'Malgun Gothic', sans-serif" font-weight="700" fill="#0f1115">게임 개발</text>
  <text x="470" y="326" font-size="46" font-family="Arial, 'Malgun Gothic', sans-serif" font-weight="700" fill="#0f1115">운영 툴</text>
  <text x="470" y="372" font-size="24" font-family="Arial, sans-serif" fill="#233039">In Development · Solo</text>
  <rect x="470" y="400" width="150" height="44" rx="22" fill="#4f46e5"/>
  <text x="545" y="429" font-size="20" font-family="Arial, sans-serif" font-weight="700" fill="#ffffff" text-anchor="middle">WIP</text>
</svg>
