<svg xmlns="http://www.w3.org/2000/svg" width="900" height="600" viewBox="0 0 900 600">
  <rect width="900" height="600" rx="24" fill="#e2ecfb"/>
  <rect x="42" y="42" width="816" height="516" rx="22" fill="rgba(255,255,255,0.72)"/>
  <g transform="translate(88,120)">
    <rect x="0" y="0" width="240" height="240" rx="12" fill="#ffffff" stroke="#17202a" stroke-width="5"/>
    <line x1="80" y1="0" x2="80" y2="240" stroke="#17202a" stroke-width="4"/>
    <line x1="160" y1="0" x2="160" y2="240" stroke="#17202a" stroke-width="4"/>
    <line x1="0" y1="80" x2="240" y2="80" stroke="#17202a" stroke-width="4"/>
    <line x1="0" y1="160" x2="240" y2="160" stroke="#17202a" stroke-width="4"/>
    <text x="40" y="55" font-size="34" font-family="Arial, sans-serif" font-weight="700" fill="#17202a" text-anchor="middle">5</text>
    <text x="120" y="135" font-size="34" font-family="Arial, sans-serif" font-weight="700" fill="#2563eb" text-anchor="middle">3</text>
    <text x="200" y="215" font-size="34" font-family="Arial, sans-serif" font-weight="700" fill="#17202a" text-anchor="middle">7</text>
  </g>
  <g transform="translate(356,120)">
    <rect x="0" y="0" width="240" height="240" rx="12" fill="#17202a"/>
    <rect x="84" y="4" width="72" height="72" rx="6" fill="#ffffff"/>
    <rect x="164" y="4" width="72" height="72" rx="6" fill="#ffffff"/>
    <rect x="4" y="84" width="72" height="72" rx="6" fill="#ffffff"/>
    <rect x="84" y="84" width="72" height="72" rx="6" fill="#ffffff"/>
    <rect x="164" y="84" width="72" height="72" rx="6" fill="#ffffff"/>
    <rect x="84" y="164" width="72" height="72" rx="6" fill="#ffffff"/>
    <line x1="4" y1="4" x2="76" y2="76" stroke="#ffffff" stroke-width="3"/>
    <text x="52" y="34" font-size="22" font-family="Arial, sans-serif" font-weight="700" fill="#ffffff" text-anchor="middle">16</text>
    <text x="26" y="66" font-size="22" font-family="Arial, sans-serif" font-weight="700" fill="#ffffff" text-anchor="middle">23</text>
    <text x="120" y="52" font-size="34" font-family="Arial, sans-serif" font-weight="700" fill="#2563eb" text-anchor="middle">9</text>
    <text x="40" y="132" font-size="34" font-family="Arial, sans-serif" font-weight="700" fill="#2563eb" text-anchor="middle">8</text>
    <text x="200" y="132" font-size="34" font-family="Arial, sans-serif" font-weight="700" fill="#2563eb" text-anchor="middle">7</text>
  </g>
  <text x="640" y="200" font-size="44" font-family="Arial, sans-serif" font-weight="700" fill="#17202a">PUZZLE</text>
  <text x="640" y="250" font-size="44" font-family="Arial, sans-serif" font-weight="700" fill="#17202a">LAB</text>
  <text x="640" y="292" font-size="22" font-family="Arial, sans-serif" fill="#233039">스도쿠 · 가쿠로 생성기</text>
  <rect x="640" y="320" width="150" height="44" rx="22" fill="#2563eb"/>
  <text x="715" y="349" font-size="20" font-family="Arial, sans-serif" font-weight="700" fill="#ffffff" text-anchor="middle">PLAY</text>
</svg>
