<svg xmlns="http://www.w3.org/2000/svg" width="900" height="600" viewBox="0 0 900 600">
  <rect width="900" height="600" rx="24" fill="#e3edff"/>
  <rect x="42" y="42" width="816" height="516" rx="22" fill="rgba(255,255,255,0.72)"/>
  <!-- 이력서 문서 -->
  <g transform="translate(96,96)">
    <rect x="0" y="0" width="300" height="380" rx="14" fill="#ffffff" stroke="#c9d8f2" stroke-width="3"/>
    <rect x="28" y="30" width="86" height="104" rx="10" fill="#dbe7fb"/>
    <rect x="132" y="36" width="140" height="20" rx="10" fill="#3b82f6"/>
    <rect x="132" y="70" width="110" height="14" rx="7" fill="#c9d8f2"/>
    <rect x="132" y="96" width="126" height="14" rx="7" fill="#c9d8f2"/>
    <rect x="28" y="162" width="244" height="14" rx="7" fill="#d8e3f6"/>
    <rect x="28" y="192" width="210" height="14" rx="7" fill="#d8e3f6"/>
    <rect x="28" y="222" width="230" height="14" rx="7" fill="#d8e3f6"/>
    <rect x="28" y="266" width="120" height="26" rx="13" fill="#dbe7fb"/>
    <rect x="160" y="266" width="90" height="26" rx="13" fill="#dbe7fb"/>
    <rect x="28" y="316" width="244" height="14" rx="7" fill="#d8e3f6"/>
    <rect x="28" y="344" width="180" height="14" rx="7" fill="#d8e3f6"/>
  </g>
  <!-- 평가 게이지 -->
  <g transform="translate(452,140)">
    <rect x="0" y="0" width="330" height="26" rx="13" fill="#dbe7fb"/>
    <rect x="0" y="0" width="240" height="26" rx="13" fill="#3b82f6"/>
    <rect x="0" y="46" width="330" height="26" rx="13" fill="#dbe7fb"/>
    <rect x="0" y="46" width="150" height="26" rx="13" fill="#7fabf3"/>
    <rect x="0" y="92" width="330" height="26" rx="13" fill="#dbe7fb"/>
    <rect x="0" y="92" width="290" height="26" rx="13" fill="#2b6cb0"/>
  </g>
  <text x="452" y="330" font-size="46" font-family="Arial, 'Malgun Gothic', sans-serif" font-weight="700" fill="#0f1115">가상 이력서</text>
  <text x="452" y="386" font-size="46" font-family="Arial, 'Malgun Gothic', sans-serif" font-weight="700" fill="#0f1115">시뮬레이션</text>
  <text x="452" y="432" font-size="24" font-family="Arial, sans-serif" fill="#233039">In Development · Solo</text>
  <rect x="452" y="460" width="150" height="44" rx="22" fill="#3b82f6"/>
  <text x="527" y="489" font-size="20" font-family="Arial, sans-serif" font-weight="700" fill="#ffffff" text-anchor="middle">WIP</text>
</svg>
